<svg height="300px" width="300px" fill="#dedede" xmlns="http://www.w3.org/2000/svg" data-name="Layer 1" viewBox="0 0 128 128" x="0px" y="0px"><title>92 Miscellaneous 17 solid</title><path d="M25,72a2,2,0,0,0-1.81-1.16H15.64V45.76l1.65,1.65a2,2,0,0,0,2.83-2.83l-5-5a2,2,0,0,0-2.83,0l-5,5a2,2,0,0,0,2.83,2.83l1.52-1.52V72.83a2,2,0,0,0,2,2H18.9L6.76,89.2a2,2,0,1,0,3.05,2.58L24.74,74.12A2,2,0,0,0,25,72Z"/><path d="M104.21,114.29V14h3a2,2,0,0,0,2-2V2a2,2,0,0,0-2-2h-10a2,2,0,0,0-2,2V12a2,2,0,0,0,2,2h3V114.29a7,7,0,1,0,4,0Z"/><path d="M96.12,42.59l-5-5a2,2,0,0,0-2.83,0l-5,5a2,2,0,0,0,2.83,2.83l1.59-1.59v28a2,2,0,0,0,4,0v-28l1.59,1.59a2,2,0,0,0,2.83-2.83Z"/><path d="M59.21,70.83H51.64V45.76l1.65,1.65a2,2,0,0,0,2.83-2.83l-5-5a2,2,0,0,0-2.83,0l-5,5a2,2,0,0,0,2.83,2.83l1.52-1.52V72.83a2,2,0,0,0,2,2H54.9L42.76,89.2a2,2,0,1,0,3.05,2.58L60.74,74.12a2,2,0,0,0-1.53-3.29Z"/><path d="M121.12,42.59l-5-5a2,2,0,0,0-2.83,0l-5,5a2,2,0,0,0,2.83,2.83l1.59-1.59v28a2,2,0,0,0,4,0v-28l1.59,1.59a2,2,0,0,0,2.83-2.83Z"/><path d="M36.24,114.3V99.89a2,2,0,0,0-.47-1.29l-6.85-8.11L42.74,74.12a2,2,0,0,0-1.53-3.29H33.64V44.23a2,2,0,0,0-.47-1.29l-7.34-8.69,9.61-11.38a2,2,0,0,0,0-2.58L31.7,15.86V14h2.51a2,2,0,0,0,2-2V2a2,2,0,0,0-2-2h-10a2,2,0,0,0-2,2V12a2,2,0,0,0,2,2H27.7v2.59a2,2,0,0,0,.47,1.29l3.13,3.7L21.68,33a2,2,0,0,0,0,2.58l8,9.42V72.83a2,2,0,0,0,2,2H36.9L24.76,89.2a2,2,0,0,0,0,2.58l7.47,8.85v13.66a7,7,0,1,0,4,0Z"/></svg>