<svg height="300px" width="300px" fill="#dedede" xmlns="http://www.w3.org/2000/svg" xmlns:xlink="http://www.w3.org/1999/xlink" version="1.1" x="0px" y="0px" viewBox="0 0 64 64" style="enable-background:new 0 0 64 64;" xml:space="preserve"><title>Transparency</title><path d="M23,19c-2.2,0-4,1.8-4,4s1.8,4,4,4s4-1.8,4-4C27,20.8,25.2,19,23,19z M23,25c-1.1,0-2-0.9-2-2s0.9-2,2-2s2,0.9,2,2  C25,24.1,24.1,25,23,25z"/><path d="M34.5,20.3c-6.5-6-16.5-6-23.1,0L8.5,23l2.9,2.7c6.5,6,16.5,6,23.1,0l2.9-2.7L34.5,20.3z M33.2,24.2  c-5.8,5.3-14.6,5.3-20.3,0L11.5,23l1.4-1.2c5.8-5.3,14.6-5.3,20.3,0l1.4,1.2L33.2,24.2z"/><path d="M60.9,55.5L46.7,41.3c-0.7-0.7-1.7-0.9-2.6-0.6L39.4,36c7.2-9.1,5.7-22.4-3.4-29.6S13.7,0.7,6.4,9.9S0.7,32.2,9.9,39.4  c7.7,6.1,18.5,6.1,26.2,0l4.7,4.7c-0.3,0.9-0.1,1.9,0.6,2.6l14.2,14.2c1.5,1.5,3.9,1.5,5.4,0C62.4,59.4,62.4,57,60.9,55.5L60.9,55.5  L60.9,55.5z M4,23C4,12.5,12.5,4,23,4s19,8.5,19,19s-8.5,19-19,19C12.5,42,4,33.5,4,23z M37.5,38.1c0.2-0.2,0.4-0.4,0.6-0.6l4.5,4.5  L42,42.6L37.5,38.1z M58.2,60c-0.5,0-1-0.2-1.3-0.5L42.7,45.3c-0.2-0.2-0.2-0.4,0-0.6c0,0,0,0,0,0l0.7-0.7l0.6-0.6l0.7-0.7l0,0  c0.2-0.2,0.4-0.2,0.6,0l14.2,14.2c0.7,0.7,0.7,1.9,0,2.6C59.1,59.8,58.7,60,58.2,60z"/><path d="M23,5C13.1,5,5,13.1,5,23s8.1,18,18,18s18-8.1,18-18C41,13.1,32.9,5,23,5z M23,39c-8.8,0-16-7.2-16-16S14.2,7,23,7  s16,7.2,16,16C39,31.8,31.8,39,23,39z"/><path d="M55,12v35h2V12c0-2.8-2.2-5-5-5H41v2h11C53.7,9,55,10.3,55,12z"/><path d="M9,52V42H7v10c0,2.8,2.2,5,5,5h35v-2H12C10.3,55,9,53.7,9,52z"/><rect x="45" y="12" width="8" height="2"/><rect x="45" y="17" width="8" height="2"/><rect x="45" y="22" width="8" height="2"/><rect x="45" y="27" width="8" height="2"/><rect x="43" y="32" width="10" height="2"/><rect x="43" y="37" width="10" height="2"/><rect x="50" y="42" width="3" height="2"/><rect x="11" y="45" width="27" height="2"/><rect x="11" y="50" width="31" height="2"/><rect x="14" y="32" width="18" height="2"/><rect x="14" y="12" width="18" height="2"/></svg>